<?xml version="1.0" encoding="utf-8"?>
<!-- Generator: Adobe Illustrator 16.0.0, SVG Export Plug-In . SVG Version: 6.00 Build 0)  -->
<!DOCTYPE svg PUBLIC "-//W3C//DTD SVG 1.1//EN" "http://www.w3.org/Graphics/SVG/1.1/DTD/svg11.dtd">
<svg version="1.1" xmlns="http://www.w3.org/2000/svg" xmlns:xlink="http://www.w3.org/1999/xlink" x="0px" y="0px"
	 width="784.706px" height="240px" viewBox="0 0 784.706 240" style="enable-background:new 0 0 784.706 240;" xml:space="preserve"
	>
<style type="text/css">
<![CDATA[
	.st0{font-family:'Optima-Regular';}
	.st1{fill:#B9D4DB;}
	.st2{font-size:14.5801;}
	.st3{fill:#F4E4C3;}
	.st4{fill:#C9B8C6;}
	.st5{font-size:15.1781;}
	.st6{font-size:15.1785;}
	.st7{fill:#CCACA6;}
	.st8{font-size:16.0976;}
]]>
</style>
<g id="Emma1972">
	<circle class="st1" cx="158.824" cy="124.609" r="93.237"/>
	<g>
		
			<image style="overflow:visible;" width="553" height="553" xlink:href="BDFEE196C5EC4C33.png"  transform="matrix(0.3117 0 0 0.3117 71.7061 38.0552)">
		</image>
	</g>
</g>
<g id="Emma1996">
	<circle class="st3" cx="305.972" cy="125.221" r="95.5"/>
	<g>
		
			<image style="overflow:visible;" width="665" height="662" xlink:href="BDFEE196C5EC4C36.png"  transform="matrix(0.2701 0 0 0.2701 216.1484 35.1914)">
		</image>
	</g>
</g>
<g id="Emma1997">
	<circle class="st4" cx="455.029" cy="125.609" r="95.442"/>
	<g>
		
			<image style="overflow:visible;" width="496" height="497" xlink:href="BDFEE196C5EC4C35.png"  transform="matrix(0.3622 0 0 0.3622 365.353 35.2168)">
		</image>
	</g>
</g>
<g id="Emma2009">
	<circle class="st7" cx="606.029" cy="125.609" r="95.442"/>
	<g>
		
			<image style="overflow:visible;" width="553" height="553" xlink:href="Emma4.png"  transform="matrix(0.3249 0 0 0.3249 516.2056 35.3975)">
		</image>
	</g>
</g>
<g id="Emma1996Text">
	<text transform="matrix(1.0831 0 0 1 113.2358 25.0898)" class="st0 st6">Emma 1996</text>
</g>
<g id="Emma1972Text">
	<text transform="matrix(1 0 0 1 270.8838 25.0898)" class="st0 st8">Emma 1972</text>
</g>
<g id="Emma1997Text">
	<text transform="matrix(1.1743 0 0 1 415.5884 25.0898)" class="st0 st2">Emma 1997</text>
</g>
<g id="Emma2009Text">
	<text transform="matrix(1.1281 0 0 1 560.7651 25.0898)" class="st0 st5">Emma 2009</text>
</g>
</svg>
